<svg xmlns="http://www.w3.org/2000/svg" width="1280" height="1280" viewBox="0 0 1280.000000 1280.000000" preserveAspectRatio="xMidYMid meet" id="svgcontent" overflow="visible" x="1280" y="1280">
    <metadata>Created by potrace 1.15, written by Peter Selinger 2001-2017</metadata>
    <g class="layer" style="pointer-events:all">
        <title style="pointer-events:inherit">Layer 1</title>
        <g transform="translate(0 1280) scale(0.1 -0.1)" fill="#000000" stroke="none" id="svg_1" fill-opacity="1">
            <path d="M0,12440L0,12080L4385,12080L8770,12080L8770,11465L8770,10850L6408,10850L4045,10850L4405,10490L4765,10130L6767,10130L8770,10130L8770,9810L8770,9490L7803,9490L6835,9490L7195,9130L7555,8770L8162,8770L8770,8770L8770,8162L8770,7555L9130,7195L9490,6835L9490,7803L9490,8770L9810,8770L10130,8770L10130,6767L10130,4765L10490,4405L10850,4045L10850,6408L10850,8770L11465,8770L12080,8770L12080,4385L12080,0L12440,0L12800,0L12800,4745L12800,9490L11825,9490L10850,9490L10850,9810L10850,10130L11825,10130L12800,10130L12800,11465L12800,12800L11465,12800L10130,12800L10130,11825L10130,10850L9810,10850L9490,10850L9490,11825L9490,12800L4745,12800L0,12800L0,12440zM12080,11465L12080,10850L11465,10850L10850,10850L10850,11465L10850,12080L11465,12080L12080,12080L12080,11465zM10130,9810L10130,9490L9810,9490L9490,9490L9490,9810L9490,10130L9810,10130L10130,10130L10130,9810z" id="svg_2" fill="#d6d6d6">
            </path>
        </g>
    </g>
</svg>